# Blender v2.75 (sub 0) OBJ File: ''
# www.blender.org
mtllib skybox.mtl
o Cube
v 100.000000 100.000000 -100.000000
v 100.000000 -100.000000 -100.000000
v -100.000000 -100.000000 -100.000000
v -100.000000 100.000000 -100.000000
v 100.000000 100.000000 100.000000
v 100.000000 -100.000000 100.000000
v -100.000000 -100.000000 100.000000
v -100.000000 100.000000 100.000000
vn 0.000000 -1.000000 0.000000
vn 0.000000 1.000000 0.000000
vn -1.000000 0.000000 0.000000
vn 1.000000 0.000000 0.000000
vn 0.000000 0.000000 1.000000
vn 0.000000 0.000000 -1.000000
vt 0.004000 0.004000
vt 0.996000 0.004000
vt 0.996000 0.996000
vt 0.004000 0.996000
s off
usemtl south
f 2/1/2 3/2/2 7/3/2 6/4/2
usemtl west
f 3/1/4 4/2/4 8/3/4 7/4/4
usemtl north
f 4/1/1 1/2/1 5/3/1 8/4/1
usemtl east
f 1/1/3 2/2/3 6/3/3 5/4/3
usemtl bottom
f 2/1/5 1/2/5 4/3/5 3/4/5
usemtl top
f 7/1/6 8/2/6 5/3/6 6/4/6